<svg width="24" height="24" viewBox="0 0 24 24" fill="none" xmlns="http://www.w3.org/2000/svg">
<path d="M12 24C10.34 24 8.78 23.685 7.32 23.055C5.86 22.425 4.59 21.57 3.51 20.49C2.43 19.41 1.575 18.14 0.945 16.68C0.315 15.22 0 13.66 0 12C0 10.34 0.315 8.78 0.945 7.32C1.575 5.86 2.43 4.59 3.51 3.51C4.59 2.43 5.86 1.575 7.32 0.945C8.78 0.315 10.34 0 12 0C13.66 0 15.22 0.315 16.68 0.945C18.14 1.575 19.41 2.43 20.49 3.51C21.57 4.59 22.425 5.86 23.055 7.32C23.685 8.78 24 10.34 24 12C24 13.66 23.685 15.22 23.055 16.68C22.425 18.14 21.57 19.41 20.49 20.49C19.41 21.57 18.14 22.425 16.68 23.055C15.22 23.685 13.66 24 12 24ZM12 22.2C14.8475 22.2 17.2594 21.2119 19.2356 19.2356C21.2119 17.2594 22.2 14.8475 22.2 12C22.2 10.7868 21.99 9.61845 21.57 8.49507C21.15 7.37169 20.56 6.35 19.8 5.43L5.43 19.8C6.33 20.58 7.34493 21.175 8.47479 21.585C9.60467 21.995 10.7797 22.2 12 22.2ZM4.23 18.57L18.57 4.23C17.65 3.45 16.6283 2.85 15.5049 2.43C14.3816 2.01 13.2132 1.8 12 1.8C9.1525 1.8 6.74062 2.78812 4.76436 4.76436C2.78812 6.74062 1.8 9.1525 1.8 12C1.8 13.2203 2.02 14.3953 2.46 15.5252C2.9 16.6551 3.49 17.67 4.23 18.57Z" fill="#EC1919"/>
</svg>
