<svg width="25" height="26" viewBox="0 0 25 26" fill="none" xmlns="http://www.w3.org/2000/svg">
<path d="M23.4375 26C20.6134 26 17.8067 25.2778 15.0174 23.8333C12.228 22.3889 9.72222 20.5111 7.5 18.2C5.27778 15.8889 3.47222 13.2829 2.08333 10.3819C0.694444 7.48102 0 4.56204 0 1.625C0 1.16071 0.148808 0.773801 0.446423 0.46428C0.744039 0.15476 1.11606 0 1.5625 0H6.42361C6.73868 0 7.02 0.114352 7.26757 0.343056C7.51512 0.571759 7.67361 0.878704 7.74306 1.26389L8.68056 5.81389C8.72685 6.15093 8.72107 6.45787 8.66319 6.73472C8.60532 7.01157 8.4838 7.2463 8.29861 7.43889L4.82639 11.0861C6.12269 13.325 7.57523 15.275 9.18403 16.9361C10.7928 18.5972 12.6157 20.0056 14.6528 21.1611L17.9514 17.6222C18.1829 17.3574 18.4491 17.1708 18.75 17.0625C19.0509 16.9542 19.3519 16.9361 19.6528 17.0083L23.7847 17.9472C24.1392 18.0285 24.4303 18.2113 24.6582 18.4957C24.8861 18.78 25 19.1148 25 19.5V24.375C25 24.8393 24.8512 25.2262 24.5536 25.5357C24.256 25.8452 23.8839 26 23.4375 26ZM3.78472 9.1L6.59722 6.13889L5.79861 2.16667H2.08333C2.08333 3.10556 2.22222 4.13472 2.5 5.25417C2.77778 6.37361 3.20602 7.65556 3.78472 9.1ZM16.5972 22.2083C17.5463 22.6657 18.5764 23.0389 19.6875 23.3278C20.7986 23.6167 21.875 23.7852 22.9167 23.8333V19.9694L19.3403 19.2111L16.5972 22.2083Z" fill="black"/>
</svg>
