<svg width="28" height="24" viewBox="0 0 28 24" fill="none" xmlns="http://www.w3.org/2000/svg">
<path d="M8.58109 6V6.75C8.81893 6.75 9.04268 6.63719 9.1841 6.44596L8.58109 6ZM10.1411 3.8906L9.5381 3.44464L9.5381 3.44464L10.1411 3.8906ZM18.1144 3.8906L18.7174 3.44464L18.1144 3.8906ZM19.6744 6L19.0714 6.44596C19.2128 6.63719 19.4366 6.75 19.6744 6.75V6ZM17.4558 13.5H16.7058C16.7058 14.6713 15.6266 15.75 14.1278 15.75V16.5V17.25C16.3049 17.25 18.2058 15.6424 18.2058 13.5H17.4558ZM14.1278 16.5V15.75C12.6289 15.75 11.5498 14.6713 11.5498 13.5H10.7998H10.0498C10.0498 15.6424 11.9506 17.25 14.1278 17.25V16.5ZM10.7998 13.5H11.5498C11.5498 12.3287 12.6289 11.25 14.1278 11.25V10.5V9.75C11.9506 9.75 10.0498 11.3576 10.0498 13.5H10.7998ZM14.1278 10.5V11.25C15.6266 11.25 16.7058 12.3287 16.7058 13.5H17.4558H18.2058C18.2058 11.3576 16.3049 9.75 14.1278 9.75V10.5ZM8.58109 6L9.1841 6.44596L10.7441 4.33656L10.1411 3.8906L9.5381 3.44464L7.97808 5.55404L8.58109 6ZM11.9872 3V3.75H16.2684V3V2.25H11.9872V3ZM18.1144 3.8906L17.5114 4.33656L19.0714 6.44596L19.6744 6L20.2774 5.55404L18.7174 3.44464L18.1144 3.8906ZM16.2684 3V3.75C16.7923 3.75 17.2528 3.98688 17.5114 4.33656L18.1144 3.8906L18.7174 3.44464C18.153 2.68153 17.2281 2.25 16.2684 2.25V3ZM10.1411 3.8906L10.7441 4.33656C11.0027 3.98688 11.4632 3.75 11.9872 3.75V3V2.25C11.0274 2.25 10.1025 2.68152 9.5381 3.44464L10.1411 3.8906ZM25.2211 10H24.4711V17H25.2211H25.9711V10H25.2211ZM20.7838 21V20.25H7.47176V21V21.75H20.7838V21ZM3.03442 17H3.78442V10H3.03442H2.28442V17H3.03442ZM7.47176 21V20.25C5.3602 20.25 3.78442 18.7236 3.78442 17H3.03442H2.28442C2.28442 19.6947 4.68197 21.75 7.47176 21.75V21ZM25.2211 17H24.4711C24.4711 18.7236 22.8953 20.25 20.7838 20.25V21V21.75C23.5735 21.75 25.9711 19.6947 25.9711 17H25.2211ZM20.7838 6V6.75C22.8953 6.75 24.4711 8.27638 24.4711 10H25.2211H25.9711C25.9711 7.30534 23.5735 5.25 20.7838 5.25V6ZM7.47176 6V5.25C4.68197 5.25 2.28442 7.30534 2.28442 10H3.03442H3.78442C3.78442 8.27638 5.3602 6.75 7.47176 6.75V6ZM7.47176 6V6.75H8.58109V6V5.25H7.47176V6ZM20.7838 6V5.25H19.6744V6V6.75H20.7838V6Z" fill="#000E08"/>
<ellipse cx="14.1278" cy="6" rx="1.10933" ry="1" fill="#000E08"/>
</svg>
