<svg width="25" height="26" viewBox="0 0 25 26" fill="none" xmlns="http://www.w3.org/2000/svg">
<path d="M2.20588 26V24.2273H22.7941V26H2.20588ZM2.20588 1.77273V0H22.7941V1.77273H2.20588ZM12.5 14.0636C13.5212 14.0636 14.3791 13.7288 15.0735 13.0591C15.768 12.3894 16.1152 11.5621 16.1152 10.5773C16.1152 9.59242 15.768 8.76515 15.0735 8.09545C14.3791 7.42576 13.5212 7.09091 12.5 7.09091C11.4788 7.09091 10.6209 7.42576 9.92647 8.09545C9.23203 8.76515 8.8848 9.59242 8.8848 10.5773C8.8848 11.5621 9.23203 12.3894 9.92647 13.0591C10.6209 13.7288 11.4788 14.0636 12.5 14.0636ZM1.83824 22.4545C1.34804 22.4545 0.919118 22.2773 0.551471 21.9227C0.183824 21.5682 0 21.1545 0 20.6818V5.31818C0 4.80606 0.183824 4.38258 0.551471 4.04773C0.919118 3.71288 1.34804 3.54545 1.83824 3.54545H23.1618C23.652 3.54545 24.0809 3.72273 24.4485 4.07727C24.8162 4.43182 25 4.84545 25 5.31818V20.6818C25 21.1545 24.8162 21.5682 24.4485 21.9227C24.0809 22.2773 23.652 22.4545 23.1618 22.4545H1.83824ZM4.53431 20.6818C5.57598 19.4409 6.81168 18.5102 8.24142 17.8898C9.67116 17.2693 11.0856 16.9591 12.4847 16.9591C13.8838 16.9591 15.3135 17.2693 16.7739 17.8898C18.2343 18.5102 19.4649 19.4409 20.4657 20.6818H23.1618V5.31818H1.83824V20.6818H4.53431ZM7.41422 20.6818H17.6471C17.0139 20.0909 16.2735 19.6182 15.4259 19.2636C14.5782 18.9091 13.6029 18.7318 12.5 18.7318C11.3971 18.7318 10.432 18.9091 9.60478 19.2636C8.77757 19.6182 8.04739 20.0909 7.41422 20.6818ZM12.5048 12.2909C12.0114 12.2909 11.5962 12.1235 11.2592 11.7886C10.9222 11.4538 10.7537 11.05 10.7537 10.5773C10.7537 10.1045 10.9206 9.70076 11.2544 9.36591C11.5881 9.03106 12.0017 8.86364 12.4952 8.86364C12.9886 8.86364 13.4038 9.03106 13.7408 9.36591C14.0778 9.70076 14.2463 10.1045 14.2463 10.5773C14.2463 11.05 14.0794 11.4538 13.7457 11.7886C13.4119 12.1235 12.9983 12.2909 12.5048 12.2909Z" fill="black"/>
</svg>
