<svg width="51" height="93" viewBox="0 0 51 93" fill="none" xmlns="http://www.w3.org/2000/svg">
<path d="M22.4105 0.835037C16.5171 1.35116 10.6838 4.36387 6.95089 8.82891C3.79416 12.6098 1.96973 16.9068 1.56163 21.5879C1.4416 22.9562 1.32158 39.4721 1.28557 58.3765C1.28557 65.2421 1.32158 68.6149 1.4176 69.5391C2.32981 78.0491 7.85111 85.3708 15.773 88.5996C21.5583 90.9641 27.8358 90.9041 33.6211 88.4195C41.3029 85.1188 46.6442 77.8571 47.5324 69.5391C47.7604 67.3786 47.6284 24.2045 47.3884 21.4679C46.9202 16.2346 44.5557 11.2775 40.6908 7.42458C35.9017 2.65947 29.1561 0.234894 22.4105 0.835037ZM26.8756 1.06309C29.1921 1.35116 31.1966 1.85528 33.177 2.67147C34.3893 3.17559 36.2137 4.12381 36.6578 4.48389C36.8739 4.65193 35.8177 4.1238 35.2055 3.75172C34.8094 3.51166 34.0772 3.22359 34.0892 3.31962C34.1253 3.58368 34.0412 3.72771 33.7772 3.84774C33.6211 3.91975 33.5131 4.02779 33.5611 4.0878C33.5971 4.15981 33.5131 4.14781 33.3691 4.0758C33.165 3.96777 33.129 3.96777 33.189 4.1118C33.225 4.20782 33.189 4.31586 33.105 4.37587C33.009 4.43588 32.985 4.41187 33.057 4.30385C33.129 4.19582 33.105 4.17182 33.009 4.23183C32.925 4.29185 32.889 4.41187 32.925 4.5079C32.973 4.61592 32.949 4.63993 32.853 4.59192C32.7689 4.53191 32.7449 4.56791 32.7929 4.69994C32.841 4.84398 32.8169 4.86798 32.6729 4.81997C32.5529 4.77196 32.5049 4.79597 32.5529 4.86798C32.6009 4.93999 32.5049 5.03602 32.3368 5.07203C32.1448 5.12004 32.0608 5.20406 32.1088 5.28808C32.1568 5.3721 32.1448 5.3841 32.0608 5.33609C31.9768 5.28808 31.9167 5.16805 31.9167 5.08403C31.9167 4.97601 31.8447 4.93999 31.7367 4.97601C31.5807 5.03602 31.5807 5.07203 31.7367 5.22807C31.9648 5.45612 31.9648 5.55214 31.7367 5.45612C31.6287 5.4201 31.5567 5.45612 31.5567 5.55214C31.5567 5.66016 31.4486 5.70818 31.2686 5.69617C31.0525 5.67217 31.0045 5.70818 31.0405 5.86421C31.0765 5.98424 31.0405 6.11627 30.9685 6.15228C30.8845 6.2123 30.8605 6.15228 30.9085 6.02025C30.9445 5.90022 30.8245 5.98425 30.6204 6.2123C30.3564 6.52437 30.2484 6.58439 30.1883 6.45235C30.1523 6.35633 30.1403 6.42835 30.1763 6.60839C30.2123 6.80044 30.1883 6.94447 30.1163 6.94447C30.0563 6.94447 30.0083 6.90845 30.0083 6.84844C30.0443 6.62039 29.9843 6.58439 29.8162 6.75243C29.7202 6.84845 29.6362 6.99248 29.6362 7.0765C29.6362 7.16052 29.6002 7.19653 29.5642 7.14851C29.5282 7.1125 29.3121 7.26854 29.0841 7.5086C28.784 7.80867 28.604 7.91669 28.4239 7.86868C28.2079 7.80867 28.1839 7.84467 28.2199 8.08473C28.2679 8.32479 28.2439 8.3608 28.0758 8.26478C27.8238 8.13274 27.7038 8.21677 27.7998 8.48083C27.8598 8.61286 27.8238 8.64886 27.6797 8.58885C27.5477 8.54084 27.5117 8.56484 27.5597 8.69688C27.5957 8.8049 27.5357 8.86491 27.3677 8.86491C27.2236 8.86491 27.1156 8.93694 27.1156 9.04496C27.1156 9.14098 27.0796 9.213 27.0316 9.201C26.7795 9.15298 26.5515 9.38104 26.6115 9.60909C26.6475 9.77713 26.6235 9.83714 26.5395 9.77713C26.4555 9.72912 26.3954 9.75313 26.3954 9.82514C26.3954 9.90916 26.3234 9.92117 26.1674 9.83714C25.9994 9.74112 25.9273 9.75313 25.8793 9.87315C25.8433 9.96918 25.6633 10.1132 25.4712 10.2092C25.2312 10.3293 25.1472 10.4493 25.1712 10.6413C25.2192 10.9294 25.0271 11.0014 24.8711 10.7374C24.7991 10.6173 24.7271 10.6293 24.535 10.8214C24.331 11.0254 24.331 11.0494 24.499 10.9894C24.619 10.9534 24.7391 10.9534 24.7631 11.0134C24.7991 11.0614 24.7631 11.1094 24.679 11.1094C24.2349 11.1334 23.4548 11.3855 23.8388 11.3855C23.9109 11.3855 24.0069 11.4695 24.0429 11.5776C24.1029 11.7216 24.0549 11.7456 23.8629 11.6856C23.7068 11.6256 23.6348 11.6496 23.6828 11.7216C23.7668 11.8536 23.4308 12.0217 23.2627 11.9136C23.2027 11.8776 23.1547 11.9136 23.1547 11.9977C23.1547 12.0817 23.1187 12.1177 23.0827 12.0697C22.9506 11.9376 22.6866 12.2737 22.8066 12.4177C22.8786 12.5138 22.8426 12.5738 22.6746 12.6218C22.5425 12.6578 22.3985 12.6338 22.3625 12.5738C22.3265 12.5138 22.2305 12.4658 22.1585 12.4658C22.0744 12.4658 22.0864 12.5138 22.1945 12.5858C22.2905 12.6458 22.3385 12.7178 22.3145 12.7418C22.1224 12.9099 21.1502 13.474 21.0542 13.486C20.9942 13.486 20.9342 13.546 20.9342 13.606C20.9342 13.678 20.7301 13.9781 20.4901 14.2662C20.238 14.5543 20.034 14.7223 20.034 14.6503C20.034 14.5662 19.9499 14.5422 19.8299 14.5903C19.6739 14.6503 19.6499 14.6143 19.7099 14.4582C19.7579 14.3382 19.7459 14.2782 19.6739 14.3262C19.6019 14.3622 19.5899 14.5423 19.6259 14.7103C19.6859 14.9383 19.6739 14.9984 19.5658 14.9383C19.4698 14.8663 19.4458 14.9383 19.4938 15.1904C19.5538 15.5025 19.5538 15.5145 19.4218 15.2504C19.2658 14.9503 19.0377 14.8783 19.1578 15.1664C19.1938 15.2864 19.1578 15.3464 19.0617 15.3224C18.9657 15.2984 18.9057 15.3704 18.9057 15.4905C18.9177 15.6105 18.8817 15.6705 18.8217 15.6465C18.6776 15.5505 18.2335 15.9706 18.3176 16.1146C18.3656 16.1866 18.2936 16.1626 18.1735 16.0666C18.0535 15.9706 17.9815 15.9466 18.0295 16.0306C18.0775 16.1026 18.0655 16.1986 17.9935 16.2466C17.9215 16.2947 17.9095 16.3907 17.9575 16.4627C18.0055 16.5467 17.9575 16.5347 17.8374 16.4387C17.6934 16.3187 17.6334 16.3187 17.6334 16.4267C17.6334 16.4987 17.5614 16.5467 17.4894 16.5227C17.2853 16.4507 17.0453 16.6908 17.1173 16.8708C17.1773 17.0148 17.0092 17.0868 16.7332 17.0268C16.6732 17.0148 16.6492 17.0508 16.6972 17.0988C16.8292 17.2189 16.3371 17.5429 16.1691 17.4349C16.085 17.3869 16.073 17.3989 16.121 17.4829C16.1691 17.567 16.145 17.627 16.073 17.627C16.001 17.627 15.965 17.675 16.001 17.735C16.109 17.903 15.6889 18.0111 15.5569 17.843C15.4969 17.735 15.4729 17.807 15.5209 18.0111C15.5929 18.3351 15.4489 18.4672 15.2928 18.2271C15.2568 18.1551 15.1608 18.1071 15.0888 18.1071C15.0168 18.1071 15.0768 18.2031 15.2088 18.3351C15.4969 18.5752 15.5809 18.8273 15.2928 18.5872C15.1488 18.4672 15.0768 18.4672 14.9328 18.5872C14.8367 18.6592 14.6927 18.6832 14.6207 18.6352C14.5127 18.5752 14.5007 18.6112 14.5487 18.7432C14.5847 18.8633 14.5727 18.9473 14.5007 18.9473C14.4406 18.9473 14.3326 19.0793 14.2486 19.2473C14.1766 19.4034 14.0686 19.5114 14.0085 19.4754C13.9605 19.4394 13.9485 19.3554 13.9845 19.2834C14.0446 19.1993 14.0085 19.1873 13.9005 19.2594C13.8045 19.3194 13.6845 19.3674 13.6125 19.3674C13.5524 19.3674 13.4444 19.4874 13.3724 19.6434C13.3124 19.7875 13.1563 19.9435 13.0363 19.9795C12.8563 20.0395 12.8443 20.0755 12.9763 20.2436C13.0963 20.3876 13.0963 20.4116 12.9763 20.3396C12.8923 20.2916 12.7963 20.3276 12.7603 20.4356C12.7242 20.5436 12.6402 20.6277 12.5802 20.6277C12.5322 20.6277 12.5082 20.5437 12.5442 20.4476C12.6282 20.2316 12.5082 20.2076 12.3041 20.4236C12.2201 20.5076 12.1721 20.6397 12.2081 20.7357C12.2441 20.8317 12.2081 20.8677 12.1361 20.8197C12.0641 20.7837 11.9801 20.7957 11.9321 20.8677C11.884 20.9397 11.812 20.9638 11.752 20.9277C11.704 20.8917 11.68 20.9637 11.716 21.0958C11.752 21.2158 11.716 21.3598 11.644 21.3959C11.572 21.4439 11.536 21.4079 11.584 21.3118C11.62 21.2158 11.596 21.0958 11.524 21.0478C11.4399 21.0118 11.3919 21.0718 11.3919 21.2158C11.3919 21.3598 11.3559 21.4559 11.3079 21.4559C11.0559 21.4199 10.9238 21.4919 10.8518 21.7199C10.7918 21.888 10.6958 21.948 10.5517 21.912C10.3837 21.876 10.3117 21.924 10.2877 22.116C10.2637 22.3081 10.1797 22.3681 9.9516 22.3441C9.78356 22.3321 9.73555 22.3441 9.86758 22.3801C9.9756 22.4161 10.0716 22.5241 10.0716 22.6201C10.0716 22.7642 10.0236 22.7762 9.81957 22.6561C9.63952 22.5601 9.59151 22.5601 9.63952 22.6561C9.71154 22.7762 9.48349 22.8482 9.20742 22.8002C9.14741 22.8002 9.1114 22.8482 9.1114 22.9082C9.1114 22.9802 8.97937 23.1723 8.81133 23.3403C8.64329 23.5083 8.51126 23.6884 8.51126 23.7484C8.51126 23.8084 8.36723 23.8324 8.18718 23.7964C7.93512 23.7604 7.89912 23.7724 8.03115 23.8684C8.18718 23.9645 8.17518 24.0125 7.93512 24.1805C7.77909 24.2885 7.43101 24.5766 7.15494 24.8407C6.87888 25.0927 6.62682 25.2608 6.59081 25.2247C6.5548 25.1887 6.60281 25.1287 6.68683 25.1047C6.75885 25.0687 6.83087 24.9727 6.83087 24.8887C6.83087 24.6966 6.03868 25.4648 5.7146 25.9569C5.58257 26.137 5.43854 26.233 5.33051 26.197C5.21049 26.149 5.15047 26.197 5.15047 26.329C5.15047 26.509 5.13847 26.509 4.95843 26.341C4.74238 26.113 4.70637 26.113 4.59834 26.293C4.55033 26.365 4.56234 26.389 4.63435 26.353C4.77839 26.257 4.94643 26.5931 4.8384 26.7611C4.80239 26.8211 4.69437 26.8691 4.59834 26.8691C4.50232 26.8691 4.45431 26.9171 4.49032 26.9892C4.52633 27.0492 4.50232 27.1092 4.44231 27.1092C4.37029 27.1092 4.29827 27.0132 4.29827 26.8931C4.28627 26.7131 4.27427 26.7011 4.22626 26.8931C4.20225 27.0132 4.10623 27.0732 3.9982 27.0252C3.83016 26.9652 3.75815 27.1692 3.92619 27.2652C3.9742 27.2892 3.93819 27.2892 3.85417 27.2652C3.77015 27.2532 3.5541 27.3732 3.37406 27.5293C3.09799 27.7933 3.07399 27.8534 3.23002 27.9494C3.36205 28.0334 3.30204 28.0454 3.03798 27.9974C2.77392 27.9494 2.62988 27.9854 2.49785 28.1414C2.34182 28.3335 2.35382 28.3335 2.62988 28.1894C2.92995 28.0334 2.92995 28.0334 2.7019 28.2855C2.58187 28.4295 2.42584 28.5255 2.34182 28.5135C2.2698 28.5015 2.20978 28.6095 2.22179 28.7416C2.23379 28.9336 2.18578 28.9816 2.01774 28.9456C1.81369 28.8856 1.78969 29.0056 1.75368 30.482C1.72967 31.3702 1.71767 29.6058 1.72967 26.5691C1.75368 22.9082 1.80169 20.7477 1.90971 20.1476C3.51809 10.1852 11.464 2.47942 21.4743 1.13511C22.9987 0.931061 25.4952 0.89505 26.8756 1.06309ZM37.9301 5.34809C38.0862 5.54014 38.0742 5.55214 37.8941 5.3961C37.7741 5.31208 37.6781 5.21606 37.6781 5.19205C37.6781 5.09603 37.7741 5.15604 37.9301 5.34809ZM23.3947 12.2737C23.3947 12.3097 23.3467 12.3697 23.2747 12.4057C23.2147 12.4418 23.1547 12.4177 23.1547 12.3577C23.1547 12.2857 23.2147 12.2257 23.2747 12.2257C23.3467 12.2257 23.3947 12.2497 23.3947 12.2737ZM26.5395 12.8739C28.856 13.9781 30.0563 16.6427 29.2761 18.9353C28.82 20.3036 27.7878 21.4679 26.5395 22.032C25.6393 22.4401 24.0909 22.5481 23.1307 22.2601C21.0302 21.6479 19.5298 19.6434 19.5298 17.4469C19.5298 16.2707 19.8179 15.4305 20.5741 14.3982C20.8622 14.0141 21.0662 13.642 21.0182 13.594C20.9702 13.546 20.9942 13.546 21.0782 13.582C21.1502 13.63 21.4863 13.474 21.8344 13.2459C22.7586 12.6218 23.3827 12.4658 24.7151 12.5018C25.6633 12.5378 25.9633 12.5978 26.5395 12.8739ZM19.9499 15.0464C19.9139 15.1544 19.8539 15.2144 19.8299 15.1784C19.7939 15.1424 19.8059 15.0704 19.8539 14.9984C19.9619 14.8063 20.034 14.8423 19.9499 15.0464ZM16.7932 17.4349C16.7932 17.4709 16.7452 17.5309 16.6732 17.567C16.6132 17.603 16.5531 17.579 16.5531 17.5189C16.5531 17.4469 16.6132 17.3869 16.6732 17.3869C16.7452 17.3869 16.7932 17.4109 16.7932 17.4349ZM13.8525 19.6795C13.8165 19.7275 13.7085 19.7515 13.6125 19.7155C13.5164 19.6674 13.4564 19.5954 13.4924 19.5354C13.5284 19.4874 13.6365 19.4634 13.7325 19.4994C13.8285 19.5474 13.8885 19.6194 13.8525 19.6795ZM13.3124 20.1476C13.3124 20.2076 13.2884 20.2676 13.2644 20.2676C13.2284 20.2676 13.1684 20.2076 13.1323 20.1476C13.0963 20.0755 13.1203 20.0275 13.1804 20.0275C13.2524 20.0275 13.3124 20.0755 13.3124 20.1476ZM12.1721 21.1078C12.2081 21.1678 12.1841 21.2278 12.1241 21.2278C12.0521 21.2278 11.9921 21.1678 11.9921 21.1078C11.9921 21.0358 12.0161 20.9878 12.0401 20.9878C12.0761 20.9878 12.1361 21.0358 12.1721 21.1078ZM11.3319 21.7079C11.2959 21.7679 11.1759 21.8279 11.0799 21.8279C10.9838 21.8279 10.9358 21.7679 10.9718 21.7079C11.0078 21.6359 11.1279 21.5879 11.2239 21.5879C11.3199 21.5879 11.3679 21.6359 11.3319 21.7079ZM9.71154 23.0282C9.61552 23.0882 9.44748 23.1363 9.35146 23.1363C9.23143 23.1363 9.25543 23.1003 9.41147 23.0282C9.73555 22.8842 9.92759 22.8842 9.71154 23.0282ZM6.35075 25.6088C6.26673 25.7049 6.14671 25.7889 6.07469 25.7889C6.00267 25.7889 6.05068 25.7049 6.18271 25.6088C6.48278 25.3808 6.5428 25.3808 6.35075 25.6088ZM3.53009 27.7093C3.5661 27.7693 3.5421 27.8294 3.48208 27.8294C3.41007 27.8294 3.35005 27.7693 3.35005 27.7093C3.35005 27.6373 3.37406 27.5893 3.39806 27.5893C3.43407 27.5893 3.49409 27.6373 3.53009 27.7093ZM10.6718 31.7543V34.4429L10.3477 34.4069L10.0116 34.3709L9.9756 32.1144L9.9516 29.8458L9.35146 30.2779C9.01538 30.518 8.72731 30.71 8.6913 30.71C8.65529 30.71 8.63129 30.554 8.63129 30.3499C8.63129 30.0499 8.75132 29.9058 9.35146 29.4737C9.87958 29.0777 10.1556 28.9576 10.3717 29.0056L10.6718 29.0536V31.7543ZM25.1231 29.0897C25.8913 29.4497 26.1314 30.41 25.6633 31.1781C25.5312 31.4062 25.0391 32.0303 24.583 32.5825C24.1269 33.1346 23.7548 33.6027 23.7548 33.6387C23.7548 33.6747 24.271 33.7107 24.8951 33.7107C26.0354 33.7107 26.0354 33.7107 26.0354 34.0108V34.3109H24.379C22.8546 34.3109 22.7226 34.2989 22.7106 34.0828C22.6986 33.9628 23.2507 33.1706 23.9469 32.3184C25.2192 30.734 25.3752 30.422 25.0751 29.8698C24.7871 29.3177 23.6828 29.4977 23.5628 30.1099C23.4908 30.422 23.4308 30.47 23.0707 30.47C22.6986 30.47 22.6626 30.446 22.7466 30.1939C23.0947 29.0776 24.0909 28.6095 25.1231 29.0897ZM39.4785 29.0897C40.3547 29.5458 40.5948 30.518 39.9826 31.2021L39.6465 31.5742L40.0426 31.9703C40.9669 32.8945 40.1987 34.4309 38.7943 34.4309C37.9422 34.4309 37.294 33.9868 37.0779 33.2426C36.9819 32.8825 36.9939 32.8705 37.33 32.8705C37.6181 32.8705 37.7141 32.9426 37.8221 33.2306C38.1702 34.2509 39.7186 33.9388 39.7186 32.8585C39.7186 32.3064 39.2865 31.9103 38.6863 31.9103C38.3382 31.9103 38.2782 31.8743 38.2782 31.6222C38.2782 31.3942 38.3502 31.3342 38.7103 31.2742C39.2985 31.1781 39.5985 30.8781 39.5985 30.398C39.5985 29.9539 39.1544 29.5098 38.6983 29.5098C38.3382 29.5098 37.7981 29.9539 37.7981 30.2419C37.7981 30.422 37.7141 30.47 37.426 30.47C37.0659 30.47 37.0539 30.458 37.126 30.0859C37.318 29.1377 38.5543 28.6095 39.4785 29.0897ZM39.5385 43.241C39.9346 43.409 40.4387 44.0331 40.4387 44.3572C40.4387 44.4533 40.2827 44.5133 40.0786 44.5133C39.8506 44.5133 39.7186 44.4532 39.7186 44.3452C39.7186 44.1052 39.1424 43.6731 38.8064 43.6731C38.3262 43.6731 37.9181 44.1412 37.8101 44.8373C37.7021 45.5215 37.7261 45.5695 38.0502 45.2814C38.6263 44.7653 39.8626 45.0294 40.3187 45.7736C40.6548 46.3137 40.6428 47.2859 40.2947 47.838C39.6586 48.8943 37.9542 48.8223 37.354 47.73C37.186 47.4059 37.138 47.0579 37.138 45.8936C37.138 44.1532 37.306 43.7091 38.0742 43.325C38.6743 43.0249 38.9864 43.0129 39.5385 43.241ZM10.4677 43.7571C10.2877 44.0812 9.83157 44.8613 9.44748 45.5095C9.06339 46.1576 8.75132 46.7218 8.75132 46.7458C8.75132 46.7698 9.13541 46.7938 9.59151 46.7938H10.4317V46.0136V45.2334H10.7918H11.1519V46.0136V46.7938H11.512C11.812 46.7938 11.872 46.8418 11.872 47.0939C11.872 47.3459 11.812 47.3939 11.512 47.3939C11.1639 47.3939 11.1519 47.4179 11.1519 47.9341C11.1519 48.4262 11.1279 48.4742 10.8518 48.4742C10.5997 48.4742 10.5517 48.4142 10.5397 48.1141C10.5277 47.9101 10.5157 47.682 10.5037 47.598C10.4917 47.502 10.1316 47.4419 9.26744 47.4179L8.03115 47.3819V47.0219C8.03115 46.7938 8.33122 46.1336 8.88335 45.1974C10.1316 43.0729 10.0356 43.193 10.4437 43.193H10.8038L10.4677 43.7571ZM25.9153 43.493C25.9153 43.7931 25.9153 43.7931 24.7271 43.7931H23.5388L23.4908 44.5733C23.4788 45.0054 23.4668 45.3535 23.4668 45.3535C23.4788 45.3535 23.6468 45.2694 23.8268 45.1734C24.607 44.7653 25.6633 45.1134 25.9874 45.8936C26.3594 46.8058 26.0954 47.9341 25.4112 48.3542C24.571 48.8583 23.3227 48.5582 22.9146 47.742C22.5906 47.1299 22.6146 47.0339 23.0347 47.0339C23.2747 47.0339 23.3947 47.0939 23.3947 47.2139C23.3947 47.586 23.9589 47.9941 24.463 47.9941C25.1111 47.9941 25.4352 47.586 25.4352 46.7698C25.4352 45.8096 24.7751 45.3535 23.9349 45.7375C23.7668 45.8096 23.6348 45.9176 23.6348 45.9776C23.6348 46.0256 23.4428 46.0736 23.2027 46.0736H22.7586L22.8426 45.3415C22.8786 44.9334 22.9146 44.2852 22.9146 43.9011V43.193H24.415H25.9153V43.493ZM25.3512 57.5483C26.0714 57.9324 26.2274 59.0607 25.6273 59.6248L25.3512 59.8889L25.6873 60.2249C26.3474 60.8851 26.2154 62.0134 25.4112 62.5175C25.0871 62.7215 24.8711 62.7575 24.2469 62.7215C23.5508 62.6855 23.4548 62.6495 23.0827 62.2414C22.7586 61.8933 22.6746 61.7013 22.6746 61.3172C22.6746 60.7531 22.9266 60.1769 23.2267 60.0689C23.4067 59.9969 23.4067 59.9609 23.1787 59.7208C22.7826 59.3007 22.6506 58.8206 22.7946 58.3765C23.1307 57.3803 24.283 56.9962 25.3512 57.5483ZM39.4785 57.5003C40.2827 57.9204 40.4987 58.4365 40.4987 59.9969C40.4987 61.0531 40.4507 61.3412 40.2347 61.7973C40.0786 62.0974 39.8026 62.4335 39.6105 62.5535C38.9264 62.9496 37.8101 62.7455 37.39 62.1334C36.8979 61.4372 37.5221 61.1252 38.0262 61.8093C38.2662 62.1214 38.3622 62.1694 38.7823 62.1334C39.3945 62.0854 39.7186 61.7013 39.8146 60.8851L39.8746 60.309L39.5385 60.573C39.1304 60.8971 38.3142 60.9211 37.7861 60.645C37.378 60.441 36.9579 59.6608 36.9579 59.0967C36.9579 58.5926 37.366 57.7644 37.6901 57.5843C38.4463 57.1882 38.8184 57.1642 39.4785 57.5003ZM11.632 57.7043C11.632 57.9924 9.65153 62.3734 9.42347 62.6135C9.38747 62.6495 9.21943 62.6855 9.05139 62.6975C8.6673 62.7095 8.65529 62.7575 9.90359 60.1409C10.4557 58.9887 10.9118 58.0284 10.9118 58.0044C10.9118 57.9804 10.2877 57.9564 9.5315 57.9564H8.15118V57.6563V57.3563H9.89158H11.632V57.7043ZM25.3152 71.7476C25.4832 71.8557 25.7353 72.1917 25.8913 72.4798C26.1074 72.9239 26.1554 73.2 26.1554 74.2202C26.1434 76.1167 25.6153 76.9208 24.355 76.9208C23.6708 76.9208 23.1427 76.5968 22.8426 76.0086C22.5305 75.3725 22.5065 72.9719 22.8186 72.4198C23.3347 71.4596 24.463 71.1595 25.3152 71.7476ZM10.0356 72.1917C10.0836 72.3238 9.85557 72.6238 9.33945 73.152L8.58328 73.9081L10.5637 73.9442C12.4362 73.9802 12.5322 73.9922 12.5322 74.2202C12.5322 74.4483 12.4362 74.4603 10.6478 74.4963C9.60352 74.5083 8.75132 74.5683 8.75132 74.6283C8.75132 74.6883 8.99137 74.9284 9.29144 75.1684C9.99961 75.7566 10.1556 76.0446 9.90359 76.2967C9.72354 76.4767 9.61552 76.4047 8.63129 75.4205C8.03115 74.8324 7.55103 74.2562 7.55103 74.1482C7.55103 73.9081 9.50749 71.9997 9.75955 71.9997C9.86758 71.9997 9.98761 72.0837 10.0356 72.1917ZM41.2789 72.6839C41.2789 72.9479 38.2902 75.9606 38.0382 75.9606C37.8221 75.9606 36.2378 74.4003 36.2378 74.1842C36.2378 74.1002 36.3218 74.0042 36.4298 73.9562C36.5498 73.9081 36.8379 74.1122 37.294 74.5563L37.9782 75.2165L39.4185 73.8481C40.7988 72.5398 41.2789 72.2398 41.2789 72.6839Z" fill="#BEA4FE"/>
<path d="M33.5491 3.49964C33.5851 3.61967 33.6572 3.67968 33.6932 3.64367C33.7292 3.60767 33.6932 3.51164 33.6092 3.42762C33.4891 3.3196 33.4771 3.3316 33.5491 3.49964Z" fill="#BEA4FE"/>
<path d="M32.2768 4.66391C32.1688 4.73592 32.1568 4.78394 32.2408 4.78394C32.3129 4.78394 32.4209 4.72392 32.4569 4.66391C32.5529 4.51987 32.5049 4.51987 32.2768 4.66391Z" fill="#BEA4FE"/>
<path d="M7.55107 24.1085C7.44304 24.1805 7.43104 24.2285 7.51506 24.2285C7.58708 24.2285 7.6951 24.1685 7.73111 24.1085C7.82713 23.9645 7.77912 23.9645 7.55107 24.1085Z" fill="#BEA4FE"/>
<path d="M5.39061 25.849C5.39061 25.945 5.43862 26.0291 5.51064 26.0291C5.57065 26.0291 5.59466 25.945 5.55865 25.849C5.51064 25.753 5.46263 25.669 5.43862 25.669C5.41462 25.669 5.39061 25.753 5.39061 25.849Z" fill="#BEA4FE"/>
<path d="M4.31037 26.4972C4.31037 26.5692 4.35838 26.6532 4.4304 26.6892C4.50242 26.7252 4.51442 26.6772 4.47841 26.5812C4.39439 26.3651 4.31037 26.3291 4.31037 26.4972Z" fill="#BEA4FE"/>
<path d="M38.2182 45.8696C37.9782 46.0617 37.8822 46.2897 37.8341 46.6858C37.6661 48.2102 39.6706 48.5222 39.9106 47.0099C40.0907 45.9176 38.9984 45.1855 38.2182 45.8696Z" fill="#BEA4FE"/>
<path d="M23.6948 58.1366C23.5268 58.2926 23.3948 58.5687 23.3948 58.7368C23.3948 59.1569 23.8989 59.637 24.331 59.637C25.2192 59.637 25.6633 58.6047 25.0032 58.0886C24.5711 57.7525 24.0549 57.7645 23.6948 58.1366Z" fill="#BEA4FE"/>
<path d="M23.6468 60.4411C23.5028 60.5611 23.3588 60.8612 23.3228 61.1012C23.2627 61.4613 23.2987 61.5933 23.5508 61.8454C23.9949 62.2895 24.8351 62.2895 25.1832 61.8454C25.7353 61.1372 25.2792 60.237 24.379 60.237C24.1029 60.237 23.7909 60.321 23.6468 60.4411Z" fill="#BEA4FE"/>
<path d="M38.0262 58.1846C37.7382 58.4726 37.6782 58.6407 37.6782 59.0968C37.6782 59.829 38.0623 60.2371 38.7464 60.2371C39.3946 60.2371 39.7186 59.829 39.7186 59.0368C39.7186 58.5327 39.6706 58.4126 39.3466 58.1486C38.8664 57.7405 38.4583 57.7525 38.0262 58.1846Z" fill="#BEA4FE"/>
<path d="M23.7309 72.3478L23.3348 72.6959V74.1363C23.3348 75.4206 23.3588 75.6246 23.5868 75.9247C23.9469 76.4048 24.6671 76.4528 25.0752 76.0207C25.3512 75.7326 25.3753 75.5886 25.4113 74.3403C25.4593 72.8279 25.3152 72.3238 24.7631 72.1198C24.295 71.9397 24.151 71.9757 23.7309 72.3478Z" fill="#BEA4FE"/>
<path d="M45.9721 10.4613C45.9601 10.5694 46.0921 10.8694 46.2481 11.1215C46.3922 11.3616 46.6922 11.9377 46.8963 12.4058C47.1003 12.8619 47.3524 13.402 47.4484 13.6061C47.5564 13.7981 47.6405 14.0262 47.6405 14.0982C47.6405 14.1702 47.7485 14.4943 47.8685 14.8184C48.5287 16.5108 48.9008 18.2152 49.0688 20.3157C49.1408 21.0598 49.2008 32.1024 49.2128 45.4135C49.2368 69.0951 49.2368 69.1911 48.9848 70.9795C48.7207 72.864 48.4927 73.7762 47.9525 75.1805C47.7725 75.6366 47.5444 76.2368 47.4364 76.5008C47.1604 77.233 46.9083 77.7371 46.2962 78.8054C45.9721 79.3335 45.72 79.8376 45.72 79.9096C45.72 79.9816 45.672 80.0416 45.612 80.0416C45.552 80.0416 45.444 80.1977 45.3599 80.4017C45.2759 80.5938 45.1679 80.7618 45.1199 80.7618C45.0719 80.7618 44.9638 80.9178 44.8798 81.1219C44.7958 81.3139 44.6878 81.482 44.6398 81.482C44.5918 81.482 44.5077 81.59 44.4477 81.71C44.2077 82.2142 41.1349 85.4429 40.8949 85.4429C40.8349 85.4429 40.7989 85.5269 40.7989 85.623C40.7989 85.719 40.7268 85.803 40.6548 85.803C40.5708 85.803 40.3067 85.971 40.0787 86.1751C39.8506 86.3911 39.4666 86.6792 39.2145 86.8352C38.9744 86.9913 38.7464 87.1593 38.7104 87.2313C38.6744 87.2913 38.3623 87.4834 38.0142 87.6634C37.6661 87.8435 37.294 88.0595 37.198 88.1435C36.8139 88.4676 35.0255 89.3318 33.7292 89.8359C31.6047 90.6641 29.9363 91.0962 27.6678 91.3843C23.9349 91.8644 19.6379 91.5883 16.3131 90.6521C9.67557 88.7917 3.45812 82.9223 0.721477 75.9607C0.505427 75.3966 0.277373 74.8324 0.229362 74.7004C0.169348 74.5684 0.0973313 74.3763 0.0733256 74.2803C0.0373172 74.1843 0.00130877 74.2323 0.00130877 74.4003C-0.010694 74.5684 0.0613228 74.8444 0.157345 75.0125C0.241365 75.1805 0.34939 75.5286 0.409404 75.7926C0.457416 76.0447 0.565441 76.3928 0.649461 76.5608C0.745483 76.7289 0.889517 77.0529 0.973536 77.281C1.05756 77.5091 1.42964 78.2892 1.80173 79.0214C2.97801 81.3379 4.2383 83.0183 6.50683 85.2989C8.88339 87.6994 11.2719 89.3678 14.3567 90.7962C15.2089 91.1803 15.929 91.5523 15.965 91.6124C16.0131 91.6724 16.1091 91.6724 16.1811 91.6364C16.2531 91.5883 16.3131 91.6003 16.3131 91.6604C16.3131 91.9364 19.6739 92.6806 21.9304 92.8967C24.343 93.1367 28.0399 92.9447 30.6565 92.4646C31.1846 92.3685 31.7487 92.3085 31.9048 92.3445C32.0728 92.3685 32.2769 92.3325 32.3609 92.2605C32.4929 92.1525 32.5049 92.1765 32.4329 92.3565C32.3609 92.5606 32.3729 92.5726 32.5769 92.4045C32.745 92.2725 32.805 92.2605 32.841 92.3685C32.877 92.4525 32.949 92.5246 33.009 92.5246C33.0811 92.5246 33.1051 92.4766 33.0691 92.4165C33.033 92.3565 33.1171 92.3085 33.2731 92.3205C33.4171 92.3205 33.6452 92.2725 33.7772 92.2245L34.0173 92.1285L33.7772 92.4045L33.5372 92.6806L33.7772 92.5966C34.1613 92.4525 34.4734 92.3805 34.8215 92.3445C34.9895 92.3325 35.2776 92.2365 35.4456 92.1285C35.7817 91.9004 36.1778 91.8404 35.8777 92.0565C35.7337 92.1645 35.7337 92.1765 35.9137 92.1165C36.0337 92.0805 36.1898 92.0445 36.2498 92.0445C36.3218 92.0445 36.3458 91.9964 36.3098 91.9484C36.2858 91.9004 36.3698 91.8404 36.5139 91.8404C36.6579 91.8284 36.8139 91.8764 36.8619 91.9604C36.922 92.0565 36.958 92.0325 36.958 91.8764C36.958 91.7324 37.018 91.6844 37.138 91.7204C37.234 91.7684 37.3421 91.7324 37.3901 91.6724C37.4261 91.6003 37.5701 91.5643 37.6901 91.6003C37.8222 91.6364 37.8942 91.6244 37.8582 91.5643C37.7742 91.4203 38.2903 91.3243 38.6384 91.4083C38.9144 91.4803 38.9264 91.4683 38.7584 91.2643C38.5903 91.0602 38.6023 91.0482 38.8664 91.1202C39.0825 91.1682 39.1185 91.1562 39.0104 91.0482C38.7824 90.8202 38.8664 90.7481 39.2865 90.7722C39.5986 90.7962 39.7666 90.7361 40.0187 90.4721C40.1987 90.28 40.2947 90.064 40.2467 89.992C40.1867 89.896 40.2107 89.8839 40.3067 89.932C40.3908 89.992 40.4268 90.088 40.4028 90.172C40.3668 90.244 40.4388 90.316 40.5588 90.316C40.7388 90.316 40.7629 90.268 40.6548 90.064C40.5348 89.8359 40.5348 89.8359 40.7388 90.004C40.9429 90.172 40.9549 90.16 40.8829 89.956C40.8109 89.7879 40.8349 89.7519 40.9789 89.8119C41.0869 89.8479 41.1469 89.8359 41.1109 89.7759C41.0029 89.5959 41.327 89.4038 41.519 89.5239C41.6151 89.5959 41.7591 89.6439 41.8191 89.6439C41.8911 89.6439 41.8671 89.5959 41.7831 89.5359C41.555 89.3918 41.8431 88.9357 42.2152 88.8397C42.3952 88.8037 42.4673 88.7077 42.4312 88.5996C42.3952 88.5036 42.4192 88.4676 42.4793 88.5036C42.5513 88.5396 42.5993 88.5156 42.5993 88.4436C42.5993 88.3716 42.7673 88.2516 42.9594 88.1795C43.2354 88.0835 43.2954 88.0235 43.1994 87.9035C43.1034 87.7955 43.1394 87.7354 43.3315 87.6874C43.4635 87.6514 43.5475 87.5674 43.4995 87.4954C43.4515 87.4114 43.4995 87.3994 43.6315 87.4474C43.7636 87.4954 43.8116 87.4714 43.7636 87.3994C43.7155 87.3273 43.7636 87.2433 43.8596 87.1953C43.9556 87.1593 44.0036 87.0633 43.9676 86.9673C43.9436 86.8832 44.0516 86.6552 44.2317 86.4751C44.4957 86.2231 44.5077 86.1751 44.3277 86.2351C44.1597 86.2831 44.1476 86.2711 44.2677 86.1871C44.3517 86.1271 44.5437 86.0911 44.6878 86.1151C44.8198 86.1391 44.8678 86.1391 44.7838 86.0911C44.7118 86.0551 44.6638 85.971 44.7118 85.911C44.7478 85.851 44.6758 85.803 44.5557 85.803C44.3757 85.803 44.3637 85.779 44.5197 85.683C44.6398 85.6109 44.7238 85.623 44.7958 85.743C44.9278 85.995 45.1319 85.971 45.0359 85.719C44.9878 85.5869 44.9998 85.5509 45.0959 85.6109C45.1799 85.659 45.2399 85.647 45.2399 85.5749C45.2399 85.5149 45.1679 85.4309 45.0959 85.4069C44.9998 85.3589 45.0119 85.3349 45.1319 85.3349C45.3479 85.3229 45.48 85.0828 45.48 84.7107C45.48 84.5787 45.54 84.5067 45.6 84.5427C45.672 84.5787 45.72 84.5667 45.72 84.4947C45.72 84.4347 45.624 84.3507 45.516 84.3266C45.3119 84.2786 45.3119 84.2666 45.516 84.2546C45.624 84.2546 45.72 84.1706 45.72 84.0866C45.72 83.9906 45.768 84.0026 45.84 84.1226C45.9481 84.2786 45.9721 84.2786 46.0681 84.1346C46.1881 83.9426 46.1041 83.6065 45.9601 83.7025C45.9001 83.7385 45.828 83.7145 45.78 83.6545C45.744 83.5825 45.816 83.5585 45.9601 83.5825C46.0921 83.6065 46.2001 83.5825 46.2001 83.5105C46.2001 83.4504 46.3202 83.4024 46.4762 83.4024C46.6802 83.4024 46.7042 83.3784 46.5602 83.2944C46.4642 83.2224 46.3562 83.1984 46.3202 83.2224C46.2841 83.2464 46.2361 83.1504 46.2361 83.0063C46.2121 82.7663 46.2241 82.7663 46.3322 82.9463C46.5122 83.2584 46.7883 83.2224 46.7042 82.8983C46.6682 82.7303 46.6922 82.6703 46.7763 82.7303C46.8483 82.7783 46.9683 82.6943 47.0403 82.5382C47.1604 82.2862 47.1604 82.2862 47.0043 82.4782C46.8483 82.6583 46.8243 82.6583 46.7643 82.5142C46.7163 82.4062 46.7403 82.2982 46.8123 82.2622C46.8723 82.2142 46.8963 82.1421 46.8603 82.0821C46.8243 82.0221 46.8483 81.9501 46.9203 81.9021C46.9803 81.8661 47.0403 81.8901 47.0403 81.9501C47.0403 82.1541 47.3524 82.1061 47.5324 81.8661C47.6885 81.686 47.6765 81.674 47.4844 81.8301C47.3764 81.9261 47.2324 81.9621 47.1964 81.9141C47.1483 81.8661 47.1844 81.7821 47.2804 81.71C47.4004 81.65 47.4124 81.566 47.3404 81.506C47.1604 81.374 47.1363 80.8578 47.3044 80.9058C47.3884 80.9419 47.4604 81.0259 47.4604 81.0859C47.4604 81.1579 47.4964 81.2659 47.5564 81.3139C47.6045 81.362 47.6405 81.3259 47.6405 81.2299C47.6405 81.1339 47.5805 80.9899 47.4964 80.9058C47.3884 80.7978 47.4124 80.7498 47.5685 80.6898C47.7245 80.6298 47.7365 80.5818 47.6285 80.4497C47.5204 80.3177 47.5324 80.2337 47.6405 80.1017C47.7605 79.9576 47.7605 79.9216 47.6405 79.9216C47.5204 79.9216 47.5204 79.8856 47.6405 79.7416C47.7245 79.6456 47.8445 79.5615 47.9045 79.5615C47.9885 79.5615 47.9885 79.6215 47.9045 79.7176C47.8085 79.8256 47.8085 79.9216 47.9045 80.0416C48.0005 80.1857 48.0126 80.1857 47.9525 80.0056C47.8925 79.8136 48.0005 79.7536 48.3006 79.7896C48.3726 79.8016 48.3246 79.7296 48.2166 79.6456C48.0246 79.5015 48.0366 79.4655 48.3126 79.1414C48.6487 78.7453 48.6487 78.7693 48.4327 78.6853C48.3126 78.6373 48.2766 78.6733 48.3126 78.7693C48.3486 78.8534 48.3006 78.9854 48.2046 79.0574C48.0726 79.1654 48.0486 79.1534 48.0606 78.9854C48.0846 78.6733 48.4927 78.0372 48.7687 77.8931C49.0088 77.7731 48.9968 77.7611 48.7207 77.8211C48.5527 77.8571 48.4927 77.8451 48.5767 77.8091C48.6487 77.7731 48.7207 77.6411 48.7207 77.5211C48.7207 77.173 48.8527 76.9089 48.9848 76.9929C49.0568 77.0409 49.0448 77.113 48.9488 77.173C48.8648 77.221 48.8287 77.305 48.8768 77.365C49.0328 77.5091 49.1888 77.137 49.0688 76.9089C48.9488 76.6809 49.0448 76.2848 49.2008 76.3808C49.2608 76.4168 49.3449 76.3808 49.3929 76.3088C49.4409 76.2127 49.4289 76.2007 49.3449 76.2488C49.1528 76.3688 49.1648 76.1767 49.3689 75.6366C49.993 74.0162 50.4131 72.1558 50.7732 69.4552C51.0253 67.4987 51.0373 67.4627 50.9532 47.0339C50.8932 27.6374 50.8572 25.1888 50.7012 22.6082C50.6412 21.5399 50.3891 19.7755 50.2211 19.1874C50.1731 19.0194 50.101 18.6833 50.077 18.4312C50.041 18.1912 49.969 17.9511 49.909 17.9151C49.849 17.8791 49.801 17.7351 49.801 17.591C49.801 17.447 49.7169 17.2189 49.6209 17.0989C49.5249 16.9669 49.4409 16.7628 49.4409 16.6428C49.4409 16.5228 49.3689 16.4268 49.2969 16.4268C49.2128 16.4268 48.9848 15.9346 48.7927 15.3465C48.6127 14.7464 48.4207 14.2662 48.3726 14.2662C48.3246 14.2662 48.1566 13.9542 48.0005 13.5701C47.8565 13.198 47.6525 12.8259 47.5685 12.7539C47.4724 12.6819 47.3404 12.4538 47.2684 12.2378C47.1964 12.0337 47.0883 11.8657 47.0283 11.8657C46.9683 11.8657 46.9203 11.7937 46.9203 11.7096C46.9203 11.6256 46.8243 11.4696 46.7163 11.3616C46.3802 11.0495 46.2001 10.8094 46.0801 10.5214C45.9961 10.3053 45.9721 10.2933 45.9721 10.4613ZM46.6322 82.6463C46.5482 82.7303 46.3202 82.5622 46.3202 82.4182C46.3202 82.3462 46.3922 82.3462 46.5002 82.4422C46.6082 82.5262 46.6562 82.6222 46.6322 82.6463Z" fill="#BEA4FE"/>
<path d="M45.9481 84.5667C45.8041 84.7588 45.8041 84.7708 45.9721 84.6387C46.0801 84.5547 46.2122 84.5307 46.2602 84.5787C46.3202 84.6267 46.3202 84.5907 46.2722 84.5067C46.1641 84.3147 46.1401 84.3267 45.9481 84.5667Z" fill="#BEA4FE"/>
<path d="M45.612 85.0349C45.612 85.1669 45.648 85.2029 45.684 85.1069C45.72 85.0229 45.708 84.9148 45.672 84.8788C45.636 84.8308 45.6 84.9028 45.612 85.0349Z" fill="#BEA4FE"/>
<path d="M44.3277 86.7033C44.2077 86.7993 44.1597 86.8713 44.2197 86.8713C44.2917 86.8713 44.4477 86.7993 44.5678 86.7033C44.6998 86.6073 44.7478 86.5233 44.6878 86.5233C44.6158 86.5233 44.4597 86.6073 44.3277 86.7033Z" fill="#BEA4FE"/>
</svg>
