<svg width="28" height="24" viewBox="0 0 28 24" fill="none" xmlns="http://www.w3.org/2000/svg">
<path d="M8.33321 18L8.33321 10C8.33321 7.79086 10.3199 6 12.7705 6L19.4265 6M8.33321 18C8.33321 20.2091 10.3199 22 12.7705 22H15.3699C16.5467 22 17.6754 21.5786 18.5075 20.8284L22.5642 17.1716C23.3964 16.4214 23.8639 15.404 23.8639 14.3431V10C23.8639 7.79086 21.8772 6 19.4265 6M8.33321 18C5.88254 18 3.89587 16.2091 3.89587 14L3.89587 6C3.89587 3.79086 5.88254 2 8.33321 2L14.9892 2C17.4399 2 19.4265 3.79086 19.4265 6M17.2079 22V20C17.2079 17.7909 19.1945 16 21.6452 16H23.8639" stroke="#797C7B" stroke-width="1.5" stroke-linejoin="round"/>
</svg>
