<svg width="49" height="48" viewBox="0 0 49 48" fill="none" xmlns="http://www.w3.org/2000/svg">
<circle cx="24.5" cy="24" r="23.5" fill="#24207B" stroke="white"/>
<path d="M36.0649 24.4852C36.0659 23.6961 35.9992 22.9085 35.8655 22.1309H24.9463V26.5902H31.2003C31.0724 27.3024 30.8015 27.9814 30.404 28.5861C30.0066 29.1908 29.4908 29.7088 28.8878 30.1088V33.0035H32.6203C34.8058 30.9885 36.0649 28.0086 36.0649 24.4852Z" fill="#4285F4"/>
<path d="M24.9462 35.8001C28.0708 35.8001 30.7017 34.7741 32.6202 33.0051L28.8878 30.1105C27.8489 30.8148 26.5109 31.2169 24.9462 31.2169C21.9261 31.2169 19.3628 29.181 18.4461 26.4375H14.6011V29.4206C15.5648 31.3383 17.0425 32.9503 18.8693 34.0768C20.6961 35.2034 22.8 35.8 24.9462 35.8001Z" fill="#34A853"/>
<path d="M18.4461 26.4386C17.9615 25.0009 17.9615 23.4441 18.4461 22.0065V19.0234H14.6011C13.7904 20.6366 13.3682 22.4171 13.3682 24.2225C13.3682 26.028 13.7904 27.8084 14.6011 29.4216L18.4461 26.4386Z" fill="#FBBC04"/>
<path d="M24.9464 17.2265C26.5976 17.1995 28.1931 17.8234 29.3881 18.9633L32.6928 15.6586C30.5973 13.6904 27.8212 12.6098 24.9464 12.6433C22.8002 12.6434 20.6963 13.24 18.8695 14.3666C17.0427 15.4931 15.565 17.1051 14.6013 19.0228L18.4463 22.0059C19.363 19.2624 21.9263 17.2265 24.9464 17.2265Z" fill="#EA4335"/>
</svg>
