<svg width="24" height="24" viewBox="0 0 24 24" fill="none" xmlns="http://www.w3.org/2000/svg">
<path d="M0 24V20.3671C0 19.4654 0.162896 18.6473 0.488688 17.913C0.81448 17.1787 1.26697 16.6312 1.84615 16.2705C3.16742 15.4461 4.35747 14.8535 5.41629 14.4928C6.47511 14.132 7.56561 13.9517 8.68778 13.9517C9.80996 13.9517 10.8959 14.132 11.9457 14.4928C12.9955 14.8535 14.181 15.4461 15.5023 16.2705C16.0814 16.6312 16.5385 17.1787 16.8733 17.913C17.2081 18.6473 17.3756 19.4654 17.3756 20.3671V24H0ZM19.0045 24V20.3671C19.0045 18.744 18.7149 17.4106 18.1357 16.3671C17.5566 15.3237 16.7964 14.4799 15.8552 13.8357C17.1041 14.0419 18.2805 14.3446 19.3846 14.744C20.4887 15.1433 21.3846 15.6006 22.0724 16.1159C22.6697 16.6055 23.1403 17.211 23.4842 17.9324C23.8281 18.6538 24 19.4654 24 20.3671V24H19.0045ZM8.68778 11.5942C7.49321 11.5942 6.51584 11.0531 5.75566 9.97101C4.99548 8.88889 4.61538 7.49758 4.61538 5.7971C4.61538 4.09662 4.99548 2.70531 5.75566 1.62319C6.51584 0.541063 7.49321 0 8.68778 0C9.88235 0 10.8597 0.541063 11.6199 1.62319C12.3801 2.70531 12.7602 4.09662 12.7602 5.7971C12.7602 7.49758 12.3801 8.88889 11.6199 9.97101C10.8597 11.0531 9.88235 11.5942 8.68778 11.5942ZM18.4615 5.7971C18.4615 7.49758 18.0814 8.88889 17.3213 9.97101C16.5611 11.0531 15.5837 11.5942 14.3891 11.5942C14.19 11.5942 13.9683 11.5749 13.724 11.5362C13.4796 11.4976 13.2579 11.4267 13.0588 11.3237C13.4932 10.6795 13.8235 9.88728 14.0498 8.94686C14.276 8.00644 14.3891 6.95652 14.3891 5.7971C14.3891 4.63768 14.276 3.61353 14.0498 2.72464C13.8235 1.83575 13.4932 1.01771 13.0588 0.270531C13.2579 0.193237 13.4796 0.128824 13.724 0.0772947C13.9683 0.0257649 14.19 0 14.3891 0C15.5837 0 16.5611 0.541063 17.3213 1.62319C18.0814 2.70531 18.4615 4.09662 18.4615 5.7971ZM1.62896 21.6812H15.7466V20.3671C15.7466 19.9549 15.6606 19.5556 15.4887 19.1691C15.3167 18.7826 15.1041 18.5121 14.8507 18.3575C13.5475 17.533 12.4525 16.9791 11.5656 16.6957C10.6787 16.4122 9.71946 16.2705 8.68778 16.2705C7.65611 16.2705 6.69231 16.4122 5.79638 16.6957C4.90045 16.9791 3.80091 17.533 2.49774 18.3575C2.24434 18.5121 2.0362 18.7826 1.8733 19.1691C1.71041 19.5556 1.62896 19.9549 1.62896 20.3671V21.6812ZM8.68778 9.27536C9.39367 9.27536 9.97738 8.94686 10.4389 8.28986C10.9005 7.63285 11.1312 6.80193 11.1312 5.7971C11.1312 4.79227 10.9005 3.96135 10.4389 3.30435C9.97738 2.64734 9.39367 2.31884 8.68778 2.31884C7.9819 2.31884 7.39819 2.64734 6.93665 3.30435C6.47511 3.96135 6.24434 4.79227 6.24434 5.7971C6.24434 6.80193 6.47511 7.63285 6.93665 8.28986C7.39819 8.94686 7.9819 9.27536 8.68778 9.27536Z" fill="white"/>
</svg>
