<svg width="24" height="24" viewBox="0 0 24 24" fill="none" xmlns="http://www.w3.org/2000/svg">
<path d="M18.8182 14.7246V9.70048H15.2727V7.38164H18.8182V2.35749H20.4545V7.38164H24V9.70048H20.4545V14.7246H18.8182ZM8.72727 11.5942C7.52727 11.5942 6.54545 11.0531 5.78182 9.97101C5.01818 8.88889 4.63636 7.49758 4.63636 5.7971C4.63636 4.09662 5.01818 2.70531 5.78182 1.62319C6.54545 0.541063 7.52727 0 8.72727 0C9.92727 0 10.9091 0.541063 11.6727 1.62319C12.4364 2.70531 12.8182 4.09662 12.8182 5.7971C12.8182 7.49758 12.4364 8.88889 11.6727 9.97101C10.9091 11.0531 9.92727 11.5942 8.72727 11.5942ZM0 24V20.3671C0 19.4654 0.159091 18.6473 0.477273 17.913C0.795455 17.1787 1.25455 16.6312 1.85455 16.2705C3.21818 15.4203 4.43035 14.8213 5.49104 14.4734C6.55175 14.1256 7.62902 13.9517 8.72285 13.9517C9.81671 13.9517 10.8909 14.1256 11.9455 14.4734C13 14.8213 14.2091 15.4203 15.5727 16.2705C16.1727 16.657 16.6364 17.2109 16.9636 17.9324C17.2909 18.6538 17.4545 19.4654 17.4545 20.3671V24H0ZM1.63636 21.6812H15.8182V20.3671C15.8182 19.9549 15.7364 19.562 15.5727 19.1884C15.4091 18.8148 15.1909 18.5378 14.9182 18.3575C13.6273 17.5072 12.5364 16.9469 11.6455 16.6763C10.7545 16.4058 9.78182 16.2705 8.72727 16.2705C7.67273 16.2705 6.69545 16.4058 5.79545 16.6763C4.89545 16.9469 3.8 17.5072 2.50909 18.3575C2.23636 18.5378 2.02273 18.8148 1.86818 19.1884C1.71364 19.562 1.63636 19.9549 1.63636 20.3671V21.6812ZM8.72727 9.27536C9.43636 9.27536 10.0227 8.94686 10.4864 8.28986C10.95 7.63285 11.1818 6.80193 11.1818 5.7971C11.1818 4.79227 10.95 3.96135 10.4864 3.30435C10.0227 2.64734 9.43636 2.31884 8.72727 2.31884C8.01818 2.31884 7.43182 2.64734 6.96818 3.30435C6.50455 3.96135 6.27273 4.79227 6.27273 5.7971C6.27273 6.80193 6.50455 7.63285 6.96818 8.28986C7.43182 8.94686 8.01818 9.27536 8.72727 9.27536Z" fill="white"/>
</svg>
