<svg width="36" height="36" viewBox="0 0 36 36" fill="none" xmlns="http://www.w3.org/2000/svg">
<circle cx="18" cy="18" r="18" fill="#000E08"/>
<path d="M23.7197 15.2279L22.9744 15.3125L22.9744 15.3125L23.7197 15.2279ZM24.1296 18.8396L24.8748 18.7551L24.8748 18.7551L24.1296 18.8396ZM11.8706 18.8396L11.1254 18.7551L11.1254 18.7551L11.8706 18.8396ZM12.2805 15.2279L13.0257 15.3125L13.0257 15.3125L12.2805 15.2279ZM11.0772 20.6334L10.5061 20.1473L10.5061 20.1473L11.0772 20.6334ZM24.9229 20.6334L24.3518 21.1196L24.3518 21.1196L24.9229 20.6334ZM20.0809 11.0098H19.3309C19.3309 11.3304 19.5346 11.6156 19.8379 11.7194L20.0809 11.0098ZM15.9193 11.0098L16.1622 11.7194C16.4655 11.6156 16.6693 11.3304 16.6693 11.0098H15.9193ZM21.4524 25.5972C21.5977 25.2093 21.4012 24.777 21.0133 24.6317C20.6254 24.4863 20.1931 24.6829 20.0478 25.0708L21.4524 25.5972ZM15.9524 25.0708C15.807 24.6829 15.3747 24.4863 14.9869 24.6317C14.599 24.777 14.4024 25.2093 14.5478 25.5972L15.9524 25.0708ZM23.2958 22.7507H12.7043V24.2507H23.2958V22.7507ZM22.9744 15.3125L23.3844 18.9242L24.8748 18.7551L24.4649 15.1433L22.9744 15.3125ZM12.6158 18.9242L13.0257 15.3125L11.5353 15.1433L11.1254 18.7551L12.6158 18.9242ZM11.6483 21.1196C12.1852 20.4889 12.5243 19.7304 12.6158 18.9242L11.1254 18.7551C11.0692 19.2499 10.8596 19.732 10.5061 20.1473L11.6483 21.1196ZM23.3844 18.9242C23.4759 19.7304 23.815 20.4889 24.3518 21.1196L25.4941 20.1473C25.1405 19.732 24.931 19.2499 24.8748 18.7551L23.3844 18.9242ZM12.7043 22.7507C12.1255 22.7507 11.722 22.465 11.5375 22.1399C11.3603 21.8278 11.3623 21.4556 11.6483 21.1196L10.5061 20.1473C9.78655 20.9926 9.76403 22.054 10.2329 22.8802C10.6943 23.6934 11.6072 24.2507 12.7043 24.2507V22.7507ZM23.2958 24.2507C24.393 24.2507 25.3058 23.6934 25.7673 22.8802C26.2361 22.054 26.2136 20.9926 25.4941 20.1473L24.3518 21.1196C24.6379 21.4556 24.6398 21.8278 24.4627 22.1399C24.2782 22.465 23.8747 22.7507 23.2958 22.7507V24.2507ZM20.8309 11.0098V10.9148H19.3309V11.0098H20.8309ZM24.4649 15.1433C24.2057 12.86 22.5129 11.0498 20.3238 10.3003L19.8379 11.7194C21.5765 12.3147 22.7915 13.7008 22.9744 15.3125L24.4649 15.1433ZM16.6693 11.0098V10.9148H15.1693V11.0098H16.6693ZM13.0257 15.3125C13.2086 13.7008 14.4236 12.3147 16.1622 11.7194L15.6764 10.3003C13.4872 11.0498 11.7944 12.86 11.5353 15.1433L13.0257 15.3125ZM18.0001 9.58398C18.7351 9.58398 19.3309 10.1798 19.3309 10.9148H20.8309C20.8309 9.35137 19.5635 8.08398 18.0001 8.08398V9.58398ZM18.0001 8.08398C16.4367 8.08398 15.1693 9.35137 15.1693 10.9148H16.6693C16.6693 10.1798 17.2651 9.58398 18.0001 9.58398V8.08398ZM20.0478 25.0708C19.7615 25.8348 18.9692 26.4173 18.0001 26.4173V27.9173C19.5701 27.9173 20.9381 26.9694 21.4524 25.5972L20.0478 25.0708ZM18.0001 26.4173C17.0309 26.4173 16.2387 25.8348 15.9524 25.0708L14.5478 25.5972C15.062 26.9694 16.43 27.9173 18.0001 27.9173V26.4173Z" fill="white"/>
</svg>
