<svg width="24" height="24" viewBox="0 0 24 24" fill="none" xmlns="http://www.w3.org/2000/svg">
<path fill-rule="evenodd" clip-rule="evenodd" d="M21 19.5C21 20.3284 20.3284 21 19.5 21L18.5 21C17.6716 21 17 20.3284 17 19.5L17 4.5C17 3.67157 17.6716 3 18.5 3L19.5 3C20.3284 3 21 3.67157 21 4.5L21 19.5Z" stroke="#797C7B" stroke-width="1.5" stroke-linecap="round" stroke-linejoin="round"/>
<path fill-rule="evenodd" clip-rule="evenodd" d="M14 19.5002C14 20.3287 13.3284 21.0002 12.5 21.0002L11.5 21.0002C10.6716 21.0002 10 20.3287 10 19.5002L10 10.1842C10 9.35582 10.6716 8.68424 11.5 8.68424L12.5 8.68424C13.3284 8.68424 14 9.35582 14 10.1842L14 19.5002Z" stroke="#797C7B" stroke-width="1.5" stroke-linecap="round" stroke-linejoin="round"/>
<path fill-rule="evenodd" clip-rule="evenodd" d="M7 19.5005C7 20.3289 6.32843 21.0005 5.5 21.0005L4.5 21.0005C3.67157 21.0005 3 20.3289 3 19.5005L3 15.8685C3 15.0401 3.67157 14.3685 4.5 14.3685L5.5 14.3685C6.32843 14.3685 7 15.0401 7 15.8685L7 19.5005Z" stroke="#797C7B" stroke-width="1.5" stroke-linecap="round" stroke-linejoin="round"/>
</svg>
