<svg width="24" height="24" viewBox="0 0 24 24" fill="none" xmlns="http://www.w3.org/2000/svg">
<path fill-rule="evenodd" clip-rule="evenodd" d="M6 6H10V10H6V6Z" stroke="#24786D" stroke-width="1.5" stroke-linecap="round" stroke-linejoin="round"/>
<path fill-rule="evenodd" clip-rule="evenodd" d="M6 14H10V18H6V14Z" stroke="#24786D" stroke-width="1.5" stroke-linecap="round" stroke-linejoin="round"/>
<path fill-rule="evenodd" clip-rule="evenodd" d="M18 10H14V6L18 6V10Z" stroke="#24786D" stroke-width="1.5" stroke-linecap="round" stroke-linejoin="round"/>
<path d="M16.0354 15.9646C16.0549 15.9842 16.0549 16.0158 16.0354 16.0354C16.0159 16.0549 15.9842 16.0549 15.9647 16.0354C15.9452 16.0158 15.9452 15.9842 15.9647 15.9646C15.9842 15.9451 16.0159 15.9451 16.0354 15.9646" stroke="#24786D" stroke-width="1.5" stroke-linecap="round" stroke-linejoin="round"/>
<path d="M14.0354 13.9646C14.0549 13.9842 14.0549 14.0158 14.0354 14.0354C14.0159 14.0549 13.9842 14.0549 13.9647 14.0354C13.9452 14.0158 13.9452 13.9842 13.9647 13.9646C13.9842 13.9451 14.0159 13.9451 14.0354 13.9646" stroke="#24786D" stroke-width="1.5" stroke-linecap="round" stroke-linejoin="round"/>
<path d="M14.0354 17.9646C14.0549 17.9842 14.0549 18.0158 14.0354 18.0354C14.0159 18.0549 13.9842 18.0549 13.9647 18.0354C13.9452 18.0158 13.9452 17.9842 13.9647 17.9646C13.9842 17.9451 14.0159 17.9451 14.0354 17.9646" stroke="#24786D" stroke-width="1.5" stroke-linecap="round" stroke-linejoin="round"/>
<path d="M18.0354 17.9646C18.0549 17.9842 18.0549 18.0158 18.0354 18.0354C18.0159 18.0549 17.9842 18.0549 17.9647 18.0354C17.9452 18.0158 17.9452 17.9842 17.9647 17.9646C17.9842 17.9451 18.0159 17.9451 18.0354 17.9646" stroke="#24786D" stroke-width="1.5" stroke-linecap="round" stroke-linejoin="round"/>
<path d="M21.5 7.978V4.5C21.5 3.395 20.605 2.5 19.5 2.5H16.022" stroke="#24786D" stroke-width="1.5" stroke-linecap="round" stroke-linejoin="round"/>
<path d="M7.978 2.5H4.5C3.395 2.5 2.5 3.395 2.5 4.5V7.978" stroke="#24786D" stroke-width="1.5" stroke-linecap="round" stroke-linejoin="round"/>
<path d="M2.5 16.022V19.5C2.5 20.605 3.395 21.5 4.5 21.5H7.978" stroke="#24786D" stroke-width="1.5" stroke-linecap="round" stroke-linejoin="round"/>
<path d="M16.022 21.5H19.5C20.605 21.5 21.5 20.605 21.5 19.5V16.022" stroke="#24786D" stroke-width="1.5" stroke-linecap="round" stroke-linejoin="round"/>
<path d="M18.0354 13.9646C18.0549 13.9842 18.0549 14.0158 18.0354 14.0354C18.0159 14.0549 17.9842 14.0549 17.9647 14.0354C17.9452 14.0158 17.9452 13.9842 17.9647 13.9646C17.9842 13.9451 18.0159 13.9451 18.0354 13.9646" stroke="#24786D" stroke-width="1.5" stroke-linecap="round" stroke-linejoin="round"/>
</svg>
