<svg width="36" height="36" viewBox="0 0 36 36" fill="none" xmlns="http://www.w3.org/2000/svg">
<circle cx="18" cy="18" r="18" fill="#EA3736"/>
<path d="M24.4167 15.2507L23.7604 23.7819C23.6135 25.6922 22.0205 27.1673 20.1046 27.1673H15.8954C13.9795 27.1673 12.3865 25.6922 12.2396 23.7819L11.5833 15.2507M26.25 13.4173C23.8686 12.2568 21.0375 11.584 18 11.584C14.9625 11.584 12.1314 12.2568 9.75 13.4173M16.1667 11.584V10.6673C16.1667 9.6548 16.9875 8.83398 18 8.83398C19.0125 8.83398 19.8333 9.6548 19.8333 10.6673V11.584M16.1667 17.084V22.584M19.8333 17.084V22.584" stroke="white" stroke-width="1.5" stroke-linecap="round"/>
</svg>
